<?xml version="1.0" encoding="utf-8"?>
<!-- Generator: Adobe Illustrator 23.0.1, SVG Export Plug-In . SVG Version: 6.00 Build 0)  -->
<svg version="1.1" baseProfile="tiny" id="Layer_1" xmlns="http://www.w3.org/2000/svg" xmlns:xlink="http://www.w3.org/1999/xlink"
	 x="0px" y="0px" viewBox="0 0 267 90" xml:space="preserve">
<rect x="-54" y="-150.5" fill="#FFFFFF" width="375" height="375"/>
<rect x="-54" y="-150.5" fill="#FFFFFF" width="375" height="375"/>
<g>
	<rect x="4.7" y="3.2" fill="none" width="257.2" height="67.6"/>
	<path d="M2.5,72.9h261.7v-72H2.5V72.9z M4.7,3.2h257.2v67.6H4.7V3.2z"/>
</g>
<g>
	<rect x="9.6" y="66.2" fill="none" width="123.8" height="0"/>
	<rect x="9.6" y="7.7" width="123.8" height="58.5"/>
</g>
<g>
	<path fill="none" d="M39,37h-2v7.2c0.5,0.1,1.2,0.1,2.1,0.1c2.5,0,4.9-0.9,4.9-3.7C43.9,38.1,41.7,37,39,37z"/>
	<path fill="none" d="M43.3,32c0-2.2-1.7-3.1-4.2-3.1c-1.1,0-1.8,0.1-2.2,0.2v6.1h2.2C41.8,35.2,43.3,33.8,43.3,32z"/>
	<path fill="none" d="M174.9,29c-4,0-6.1,3.7-6.1,7.9c0,4,2.2,7.7,6,7.7c3.9,0,6.1-3.6,6.1-7.9C181,32.9,179,29,174.9,29z"/>
	<path fill="none" d="M195.6,29c-1.2,0-2,0.1-2.4,0.2v6.9h2.5c2.6,0,4.3-1.4,4.3-3.6C199.9,30.1,198.1,29.1,195.6,29z"/>
	<path fill="none" d="M-54-150.5v375h375v-375H-54z M44.9,44.5c-1.3,1.2-3.5,1.8-6.5,1.8c-1.7,0-3-0.1-3.8-0.2V27.4
		c1.1-0.2,2.8-0.4,4.5-0.4c2.4,0,4,0.4,5.2,1.4c1,0.7,1.6,1.9,1.6,3.3c0,1.8-1.2,3.4-3.2,4.2v0.1c1.8,0.4,3.9,1.9,3.9,4.7
		C46.5,42.3,45.9,43.5,44.9,44.5z M62.2,38v8.1h-2.5v-8l-6-10.9h2.8l2.7,5.2c0.7,1.4,1.3,2.6,1.9,3.9h0.1c0.5-1.2,1.2-2.5,1.9-3.9
		l2.7-5.2h2.8L62.2,38z M87.7,29.2h-5.8v16.9h-2.5V29.2h-5.8v-2.1h14V29.2z M106.3,46.1H95.6V27.1h10.2v2.1h-7.8v6h7.4v2h-7.4V44
		h8.2V46.1z M161.4,29.3h-7.8v6.3h7.2v2h-7.2v8.6h-2.4V27.3h10.2V29.3z M174.8,46.5c-5,0-8.5-3.9-8.5-9.6c0-6,3.7-9.9,8.8-9.9
		c5.2,0,8.5,4,8.5,9.6C183.5,43.1,179.6,46.5,174.8,46.5z M200.5,46.2c-0.3-0.5-0.7-2.2-1.3-4.5c-0.6-2.6-1.6-3.6-3.8-3.7h-2.3v8.2
		h-2.4V27.5c1.2-0.3,3-0.4,4.7-0.4c2.6,0,4.3,0.5,5.5,1.5c1,0.8,1.5,2.1,1.5,3.6c0,2.5-1.6,4.2-3.6,4.8v0.1c1.5,0.5,2.3,1.9,2.8,3.8
		c0.6,2.6,1.1,4.5,1.5,5.2H200.5z M225.3,45.4c-1.1,0.4-3.3,1-5.8,1c-2.9,0-5.2-0.7-7.1-2.5c-1.6-1.6-2.6-4.1-2.6-7.1
		c0-5.6,3.9-9.8,10.3-9.8c2.2,0,3.9,0.5,4.7,0.9l-0.6,2c-1-0.4-2.3-0.8-4.2-0.8c-4.6,0-7.6,2.9-7.6,7.6c0,4.8,2.9,7.6,7.3,7.6
		c1.6,0,2.7-0.2,3.3-0.5v-5.6h-3.8v-2h6.2V45.4z M244.4,46.2h-10.6V27.3H244v2.1h-7.8v6h7.4v2h-7.4v6.8h8.2V46.2z"/>
	<path fill="#FFFFFF" d="M42.6,35.9L42.6,35.9c2-0.8,3.2-2.4,3.2-4.2c0-1.5-0.6-2.6-1.6-3.3c-1.2-1-2.8-1.4-5.2-1.4
		c-1.7,0-3.4,0.2-4.5,0.4V46c0.8,0.1,2.1,0.2,3.8,0.2c3.1,0,5.2-0.6,6.5-1.8c1-0.9,1.6-2.2,1.6-3.8C46.5,37.9,44.4,36.4,42.6,35.9z
		 M37,29.1c0.4-0.1,1-0.2,2.2-0.2c2.5,0,4.2,0.9,4.2,3.1c0,1.8-1.5,3.2-4.1,3.2H37V29.1z M39.1,44.3c-0.9,0-1.6,0-2.1-0.1V37h2
		c2.7,0,4.9,1.1,4.9,3.7C43.9,43.4,41.6,44.3,39.1,44.3z"/>
	<path fill="#FFFFFF" d="M63.1,32.4c-0.7,1.4-1.4,2.7-1.9,3.9h-0.1c-0.6-1.3-1.2-2.5-1.9-3.9l-2.7-5.2h-2.8l6,10.9v8h2.5V38
		l6.3-10.9h-2.8L63.1,32.4z"/>
	<polygon fill="#FFFFFF" points="73.7,29.2 79.4,29.2 79.4,46.1 81.9,46.1 81.9,29.2 87.7,29.2 87.7,27.1 73.7,27.1 	"/>
	<polygon fill="#FFFFFF" points="98.1,37.2 105.4,37.2 105.4,35.2 98.1,35.2 98.1,29.2 105.9,29.2 105.9,27.1 95.6,27.1 95.6,46.1 
		106.3,46.1 106.3,44 98.1,44 	"/>
	<polygon points="151.2,46.2 153.7,46.2 153.7,37.7 160.8,37.7 160.8,35.6 153.7,35.6 153.7,29.3 161.4,29.3 161.4,27.3 151.2,27.3 
			"/>
	<path d="M175,27c-5.1,0-8.8,3.9-8.8,9.9c0,5.7,3.5,9.6,8.5,9.6c4.8,0,8.8-3.5,8.8-10C183.5,30.9,180.2,27,175,27z M174.9,44.5
		c-3.8,0-6-3.6-6-7.7c0-4.2,2-7.9,6.1-7.9c4.1,0,6,3.9,6,7.7C181,41,178.8,44.5,174.9,44.5z"/>
	<path d="M198.8,37.2L198.8,37.2c2-0.8,3.6-2.4,3.6-4.9c0-1.5-0.5-2.8-1.5-3.6c-1.2-1.1-2.9-1.5-5.5-1.5c-1.7,0-3.5,0.1-4.7,0.4
		v18.7h2.4V38h2.3c2.2,0.1,3.2,1.1,3.8,3.7c0.5,2.4,1,4,1.3,4.5h2.5c-0.4-0.7-0.8-2.6-1.5-5.2C201.1,39.1,200.3,37.7,198.8,37.2z
		 M195.6,36.2h-2.5v-6.9c0.4-0.1,1.2-0.2,2.4-0.2c2.6,0,4.4,1.1,4.4,3.5C199.9,34.7,198.3,36.2,195.6,36.2z"/>
	<path d="M219.1,38.3h3.8v5.6c-0.6,0.3-1.7,0.5-3.3,0.5c-4.4,0-7.3-2.8-7.3-7.6c0-4.7,3-7.6,7.6-7.6c1.9,0,3.2,0.4,4.2,0.8l0.6-2
		c-0.8-0.4-2.5-0.9-4.7-0.9c-6.3,0-10.2,4.1-10.3,9.8c0,2.9,1,5.5,2.6,7.1c1.9,1.8,4.2,2.5,7.1,2.5c2.6,0,4.7-0.6,5.8-1v-9.1h-6.2
		V38.3z"/>
	<polygon points="236.2,37.4 243.5,37.4 243.5,35.3 236.2,35.3 236.2,29.3 244,29.3 244,27.3 233.7,27.3 233.7,46.2 244.4,46.2 
		244.4,44.2 236.2,44.2 	"/>
</g>
</svg>
